<svg xmlns="http://www.w3.org/2000/svg" xmlns:xlink="http://www.w3.org/1999/xlink" width="1920" height="960" viewBox="0 0 1920 960">
<defs>
  <linearGradient id="bg" x1="0" y1="0" x2="1" y2="1">
    <stop offset="0" stop-color="#0E0E16"/>
    <stop offset="1" stop-color="#1B1B2A"/>
  </linearGradient>
  <filter id="shadow" x="-40%" y="-40%" width="180%" height="180%">
    <feDropShadow dx="0" dy="20" stdDeviation="28" flood-color="#000000" flood-opacity="0.55"/>
  </filter>
</defs>
<rect width="1920" height="960" fill="url(#bg)"/>
<text x="140" y="360" font-family="Helvetica, Arial, sans-serif" font-size="110" font-weight="800" fill="#ECECF1" text-anchor="start">Network Quality</text><text x="140" y="440" font-family="Helvetica, Arial, sans-serif" font-size="42" font-weight="600" fill="#4ECDC4" text-anchor="start">Apple&#8217;s network test, one tap on your Stream Deck</text><text x="140" y="520" font-family="Helvetica, Arial, sans-serif" font-size="30" font-weight="400" fill="#9A9AAD" text-anchor="start">Download &#183; Upload &#183; Responsiveness (RPM) &#183; macOS</text><circle cx="156" cy="612" r="9" fill="#4ECDC4"/><text x="178" y="622" font-family="Helvetica, Arial, sans-serif" font-size="28" font-weight="400" fill="#ECECF1" text-anchor="start">Download &amp; upload throughput</text><circle cx="156" cy="662" r="9" fill="#7AA2F7"/><text x="178" y="672" font-family="Helvetica, Arial, sans-serif" font-size="28" font-weight="400" fill="#ECECF1" text-anchor="start">Live responsiveness, color-coded</text><circle cx="156" cy="712" r="9" fill="#F4C430"/><text x="178" y="722" font-family="Helvetica, Arial, sans-serif" font-size="28" font-weight="400" fill="#ECECF1" text-anchor="start">Free &amp; open source</text><rect x="1260" y="250" width="460" height="460" rx="57.5" fill="#0E0E16" filter="url(#shadow)"/>
<svg x="1260" y="250" width="460" height="460" viewBox="0 0 144 144"><rect x="0" y="0" width="144" height="144" rx="18" fill="#15151E"/><path d="M18,26 L34,26 L26,42 Z" fill="#4ECDC4"/><text x="44" y="44" font-family="Helvetica, Arial, sans-serif" font-size="30" font-weight="700" fill="#ECECF1">232</text><path d="M18,84 L34,84 L26,68 Z" fill="#7AA2F7"/><text x="44" y="86" font-family="Helvetica, Arial, sans-serif" font-size="30" font-weight="700" fill="#ECECF1">100</text><text x="72" y="108" text-anchor="middle" font-family="Helvetica, Arial, sans-serif" font-size="15" fill="#8A8A99">Mbps</text><rect x="10" y="116" width="124" height="20" rx="6" fill="#F4C430"/><text x="72" y="131" text-anchor="middle" font-family="Helvetica, Arial, sans-serif" font-size="14" font-weight="700" fill="#15151E">RPM 397</text></svg>
</svg>