<svg xmlns="http://www.w3.org/2000/svg" xmlns:xlink="http://www.w3.org/1999/xlink" width="1920" height="960" viewBox="0 0 1920 960">
<defs>
  <linearGradient id="bg" x1="0" y1="0" x2="1" y2="1">
    <stop offset="0" stop-color="#0E0E16"/>
    <stop offset="1" stop-color="#1B1B2A"/>
  </linearGradient>
  <filter id="shadow" x="-40%" y="-40%" width="180%" height="180%">
    <feDropShadow dx="0" dy="20" stdDeviation="28" flood-color="#000000" flood-opacity="0.55"/>
  </filter>
</defs>
<rect width="1920" height="960" fill="url(#bg)"/>
<text x="960" y="180" font-family="Helvetica, Arial, sans-serif" font-size="64" font-weight="800" fill="#ECECF1" text-anchor="middle">Press to test</text><rect x="300" y="320" width="280" height="280" rx="35" fill="#0E0E16" filter="url(#shadow)"/>
<svg x="300" y="320" width="280" height="280" viewBox="0 0 144 144"><rect x="0" y="0" width="144" height="144" rx="18" fill="#15151E"/><path d="M49,45 L71,45 L60,67 Z" fill="#4ECDC4"/><path d="M73,67 L95,67 L84,45 Z" fill="#7AA2F7"/><text x="72" y="98" text-anchor="middle" font-family="Helvetica, Arial, sans-serif" font-size="20" font-weight="700" fill="#ECECF1">Speed</text><text x="72" y="120" text-anchor="middle" font-family="Helvetica, Arial, sans-serif" font-size="15" fill="#8A8A99">Tap to test</text></svg><text x="440" y="660" font-family="Helvetica, Arial, sans-serif" font-size="34" font-weight="600" fill="#9A9AAD" text-anchor="middle">Idle</text><rect x="820" y="320" width="280" height="280" rx="35" fill="#0E0E16" filter="url(#shadow)"/>
<svg x="820" y="320" width="280" height="280" viewBox="0 0 144 144"><rect x="0" y="0" width="144" height="144" rx="18" fill="#15151E"/><text x="72" y="64" text-anchor="middle" font-family="Helvetica, Arial, sans-serif" font-size="20" font-weight="700" fill="#ECECF1">Testing</text><circle cx="56" cy="92" r="6" fill="#3A3A48"/><circle cx="72" cy="92" r="6" fill="#4ECDC4"/><circle cx="88" cy="92" r="6" fill="#3A3A48"/><text x="72" y="124" text-anchor="middle" font-family="Helvetica, Arial, sans-serif" font-size="13" fill="#8A8A99">~15s</text></svg><text x="960" y="660" font-family="Helvetica, Arial, sans-serif" font-size="34" font-weight="600" fill="#9A9AAD" text-anchor="middle">Testing&#8230;</text><rect x="1340" y="320" width="280" height="280" rx="35" fill="#0E0E16" filter="url(#shadow)"/>
<svg x="1340" y="320" width="280" height="280" viewBox="0 0 144 144"><rect x="0" y="0" width="144" height="144" rx="18" fill="#15151E"/><path d="M18,26 L34,26 L26,42 Z" fill="#4ECDC4"/><text x="44" y="44" font-family="Helvetica, Arial, sans-serif" font-size="30" font-weight="700" fill="#ECECF1">232</text><path d="M18,84 L34,84 L26,68 Z" fill="#7AA2F7"/><text x="44" y="86" font-family="Helvetica, Arial, sans-serif" font-size="30" font-weight="700" fill="#ECECF1">100</text><text x="72" y="108" text-anchor="middle" font-family="Helvetica, Arial, sans-serif" font-size="15" fill="#8A8A99">Mbps</text><rect x="10" y="116" width="124" height="20" rx="6" fill="#F4C430"/><text x="72" y="131" text-anchor="middle" font-family="Helvetica, Arial, sans-serif" font-size="14" font-weight="700" fill="#15151E">RPM 397</text></svg><text x="1480" y="660" font-family="Helvetica, Arial, sans-serif" font-size="34" font-weight="600" fill="#9A9AAD" text-anchor="middle">Result</text><path d="M610,460 l44,0 m-16,-14 l16,14 l-16,14" stroke="#9A9AAD" stroke-width="6" fill="none" stroke-linecap="round" stroke-linejoin="round"/><path d="M1130,460 l44,0 m-16,-14 l16,14 l-16,14" stroke="#9A9AAD" stroke-width="6" fill="none" stroke-linecap="round" stroke-linejoin="round"/>
</svg>